<?xml version="1.0" encoding="utf-8"?>
<!-- Generator: Adobe Illustrator 20.0.0, SVG Export Plug-In . SVG Version: 6.00 Build 0)  -->
<svg version="1.1" id="Camada_1" xmlns="http://www.w3.org/2000/svg" xmlns:xlink="http://www.w3.org/1999/xlink" x="0px" y="0px"
	 viewBox="0 0 226 102" style="enable-background:new 0 0 226 102;" xml:space="preserve">
<style type="text/css">
	.st0{fill:#4D4D4D;}
	.st1{fill:#999999;}
	.st2{fill:#FE7812;}
</style>
<g>
	<g>
		<g>
			<path class="st0" d="M30.6,37.5h-11v14.1c0,1.2-0.3,2.1-0.8,2.6S17.5,55,16.3,55c-1.6,0-2.4-0.9-2.4-2.6v-32
				c0-1.7,0.8-2.6,2.4-2.6h17.8c1.1,0,1.9,0.1,2.4,0.4s0.8,0.8,0.8,1.6v4c0,0.9-0.2,1.6-0.6,2s-0.9,0.6-1.7,0.6
				c-1,0-1.8-0.3-2.3-0.8S32,24.3,32,23v-2.4H19.6v14h11c0.5,0,0.8,0.1,1.1,0.4c0.2,0.3,0.4,0.6,0.4,1.1c0,0.2,0,0.3-0.1,0.5
				s-0.2,0.3-0.3,0.4s-0.3,0.2-0.5,0.3C31,37.5,30.8,37.5,30.6,37.5z"/>
		</g>
	</g>
	<g>
		<path class="st0" d="M82.2,31c0,1.4-0.7,2-2,2h-1.7c-1.4,0-2.5,0.2-3.5,0.6c-1,0.4-1.8,0.9-2.4,1.5s-1.1,1.3-1.4,2.1
			s-0.4,1.6-0.4,2.4v11.8c0,0.8-0.1,1.4-0.2,1.8c-0.1,0.5-0.3,0.9-0.6,1.1s-0.6,0.5-1,0.6C68.4,55,67.9,55,67.3,55
			c-0.8,0-1.4-0.2-1.7-0.6c-0.3-0.4-0.4-1-0.4-1.9V31c0-0.8,0.2-1.4,0.5-1.8c0.3-0.3,0.9-0.5,1.7-0.5c1,0,1.7,0.4,2.3,1.1
			c0.5,0.8,0.8,1.9,0.8,3.4v1.3h0.1c0.3-0.5,0.7-1.1,1.2-1.8s1.1-1.3,1.7-1.9c0.7-0.6,1.5-1.1,2.4-1.5s2-0.6,3.1-0.6h0.6
			c0.9,0,1.5,0.2,1.9,0.6C81.9,29.6,82.1,30.2,82.2,31z"/>
		<path class="st0" d="M104.5,48.4c0.2-0.2,0.3-0.3,0.6-0.4s0.5-0.2,0.7-0.2c0.3,0,0.6,0.1,0.8,0.3c0.2,0.2,0.4,0.5,0.4,0.8
			c0,0.6-0.2,1.2-0.7,1.8c-2.3,2.9-5.6,4.3-9.7,4.3c-2,0-3.9-0.3-5.4-0.9s-2.8-1.4-3.9-2.5s-1.8-2.4-2.3-3.9s-0.8-3.3-0.8-5.2
			c0-4.5,1-8,3.1-10.3s5.1-3.5,9.2-3.5c1.6,0,3,0.2,4.3,0.7s2.4,1.1,3.3,2c0.9,0.9,1.6,2,2.1,3.3s0.8,2.8,0.8,4.5s-1,2.6-3,2.6H90.1
			c0,0.1,0,0.3,0,0.5s0,0.4,0,0.7c0,1.5,0.1,2.9,0.4,4.1c0.3,1.2,0.7,2.2,1.3,3.1c0.6,0.8,1.4,1.5,2.3,1.9c0.9,0.5,2,0.7,3.2,0.7
			c1,0,1.9-0.1,2.6-0.4s1.4-0.6,1.9-1s1-0.8,1.3-1.2c0.4-0.4,0.7-0.8,0.9-1.1L104.5,48.4z M96.3,30.8c-1.7,0-3.1,0.7-4.1,2.1
			c-1.1,1.4-1.7,3.7-1.9,6.7h9.8c0.6,0,1.1-0.1,1.3-0.3c0.3-0.2,0.4-0.6,0.4-1.2c0-1.2-0.1-2.2-0.4-3.1c-0.3-0.9-0.7-1.7-1.2-2.3
			s-1.1-1.1-1.8-1.4C97.7,31,97,30.8,96.3,30.8z"/>
		<path class="st0" d="M120.4,25v3.7h5.8c0.6,0,1.1,0.1,1.4,0.3s0.4,0.5,0.4,0.8c0,0.4-0.2,0.7-0.5,0.9c-0.3,0.3-0.8,0.4-1.3,0.4
			h-5.8V48c0,0.8,0.1,1.5,0.3,2.1s0.4,1.1,0.7,1.5c0.3,0.4,0.6,0.7,1,0.9s0.8,0.3,1.2,0.3c0.7,0,1.3-0.1,1.7-0.4s0.9-0.6,1.2-0.9
			c0.3-0.4,0.6-0.8,0.8-1.2s0.5-0.8,0.7-1.2s0.5-0.7,0.7-0.9c0.3-0.2,0.6-0.4,1-0.4s0.7,0.1,1,0.3c0.2,0.2,0.4,0.5,0.4,0.9
			c0,0.3-0.1,0.6-0.3,1s-0.4,0.7-0.5,0.9c-0.9,1.3-2,2.3-3.2,3c-1.3,0.7-2.6,1-4.1,1c-1.6,0-2.8-0.2-3.9-0.6c-1-0.4-1.8-1-2.5-1.7
			c-0.6-0.7-1-1.6-1.3-2.6c-0.2-1-0.4-2.2-0.4-3.4V31.2H112c-0.6,0-1.1-0.1-1.3-0.3c-0.3-0.2-0.4-0.5-0.4-0.8c0-0.4,0.2-0.6,0.6-0.9
			c0.4-0.2,0.9-0.5,1.6-0.8s1.3-0.8,2.1-1.4c0.8-0.6,1.5-1.5,2.1-2.6c0.2-0.4,0.4-0.8,0.6-1c0.2-0.3,0.3-0.5,0.5-0.7
			s0.3-0.3,0.5-0.4s0.4-0.1,0.6-0.1c0.6,0,1,0.2,1.2,0.6S120.4,23.9,120.4,25z"/>
		<path class="st0" d="M151.2,50.1L151,50c-1.1,1.7-2.5,3-3.9,3.8c-1.5,0.8-3.3,1.2-5.3,1.2c-1.3,0-2.4-0.2-3.4-0.5
			s-1.8-0.8-2.5-1.4c-0.7-0.6-1.2-1.4-1.5-2.2c-0.3-0.9-0.5-1.8-0.5-2.9c0-1.1,0.2-2.2,0.6-3.3c0.4-1.1,1.1-2.1,2.1-3s2.3-1.6,4-2.1
			s3.9-0.8,6.5-0.8h3.8v-1.5c0-1.2-0.1-2.2-0.3-3s-0.5-1.5-0.9-2s-1-0.9-1.6-1.1c-0.7-0.2-1.5-0.3-2.4-0.3c-1.7,0-3.3,0.7-4.6,2.2
			c-1.1,1.2-2.2,1.8-3.2,1.8c-0.6,0-1.1-0.2-1.4-0.5c-0.3-0.3-0.5-0.8-0.5-1.3c0-0.7,0.3-1.3,0.9-1.8c0.6-0.5,1.5-1,2.5-1.4
			s2.2-0.7,3.4-0.9s2.6-0.3,3.9-0.3c1.9,0,3.5,0.2,4.7,0.6s2.2,1,3,1.8s1.3,1.8,1.6,3c0.3,1.2,0.4,2.6,0.4,4.2v14.4
			c0,0.8-0.1,1.5-0.4,1.9c-0.3,0.4-0.8,0.6-1.6,0.6c-1.1,0-2-0.4-2.5-1.2C151.4,53.1,151.2,51.8,151.2,50.1z M151,41h-3
			c-5.7,0-8.6,2.1-8.6,6.3c0,2.9,1.5,4.3,4.6,4.3c0.7,0,1.4-0.1,2.2-0.4c0.8-0.3,1.6-0.6,2.3-1.2c0.7-0.5,1.3-1.2,1.8-1.9
			c0.5-0.8,0.7-1.7,0.7-2.7V41z"/>
		<path class="st0" d="M178.6,48.6c-0.1-1.1-0.4-1.9-1-2.6s-1.6-1.3-2.9-1.8l-3-1.1l-2-0.7c-0.9-0.3-1.7-0.7-2.5-1s-1.5-0.8-2-1.3
			c-0.6-0.5-1.1-1.1-1.4-1.8c-0.4-0.7-0.5-1.6-0.5-2.6s0.2-1.9,0.5-2.6c0.3-0.7,0.8-1.4,1.4-1.9c0.6-0.5,1.2-0.9,1.9-1.3
			c0.7-0.3,1.4-0.6,2.1-0.8c0.7-0.2,1.4-0.3,2.1-0.4c0.7-0.1,1.2-0.1,1.7-0.1c1.5,0,2.9,0.1,4.1,0.4c1.2,0.3,2.2,0.6,3,1.1
			c0.8,0.4,1.4,1,1.9,1.5c0.4,0.6,0.6,1.2,0.6,1.8c0,0.6-0.2,1-0.6,1.4c-0.4,0.3-0.9,0.5-1.4,0.5c-0.7,0-1.2-0.2-1.7-0.5
			s-0.8-0.8-1.1-1.4c-0.9-1.8-2.4-2.7-4.7-2.7c-1.4,0-2.5,0.3-3.3,1s-1.2,1.7-1.2,3.1c0,0.5,0.1,0.9,0.3,1.2s0.4,0.7,0.7,1
			s0.6,0.6,1,0.8s0.8,0.4,1.1,0.6l1.5,0.6l1.7,0.6c0.5,0.2,0.9,0.3,1.4,0.5c0.5,0.1,0.9,0.3,1.4,0.5s0.9,0.4,1.3,0.6
			c0.4,0.2,0.9,0.5,1.3,0.7c0.5,0.3,1,0.6,1.4,0.9c0.4,0.3,0.8,0.7,1.2,1.1c0.3,0.4,0.6,0.9,0.8,1.4s0.3,1.1,0.3,1.7
			c0,1.2-0.3,2.2-0.8,3.2s-1.3,1.8-2.2,2.5c-1,0.7-2.1,1.2-3.4,1.6c-1.3,0.4-2.8,0.6-4.4,0.6c-1.3,0-2.5-0.1-3.8-0.3
			c-1.2-0.2-2.3-0.6-3.3-1s-1.7-1-2.3-1.6s-0.9-1.4-0.9-2.2c0-0.3,0.1-0.5,0.2-0.8c0.1-0.2,0.3-0.4,0.5-0.6c0.2-0.2,0.4-0.3,0.7-0.4
			s0.5-0.1,0.8-0.1c1.3,0,2.3,0.6,2.9,1.9c0.2,0.4,0.4,0.7,0.6,1.1c0.2,0.4,0.6,0.7,1,1s0.9,0.5,1.5,0.7s1.4,0.3,2.3,0.3
			c0.8,0,1.5-0.1,2.1-0.3c0.7-0.2,1.2-0.4,1.7-0.8c0.5-0.4,0.9-0.8,1.1-1.3S178.6,49.4,178.6,48.6z"/>
		<path class="st0" d="M195.8,19.5v21l8.7-8c0.7-0.6,1.3-1.2,1.9-1.7s1-0.9,1.5-1.2c0.5-0.3,0.9-0.5,1.3-0.7s0.8-0.2,1.3-0.2
			c1,0,1.5,0.5,1.5,1.4c0,0.3-0.1,0.5-0.2,0.8c-0.1,0.2-0.3,0.5-0.6,0.7s-0.6,0.5-1.1,0.8s-1,0.7-1.6,1.1l-1.8,1.1
			c-0.3,0.2-0.7,0.4-1,0.7s-0.6,0.4-0.9,0.7c-0.3,0.3-0.7,0.5-1.1,0.9c-0.4,0.3-0.8,0.7-1.3,1.1l-2.2,1.8c0.4,0.4,0.9,1,1.5,1.7
			s1.3,1.5,2.1,2.4s1.5,1.8,2.3,2.7s1.5,1.8,2.2,2.6s1.3,1.5,1.8,2.1s0.8,1,1,1.2c0.6,0.8,0.9,1.3,0.9,1.7c0,0.1,0,0.3-0.1,0.4
			c-0.1,0.1-0.2,0.2-0.3,0.3c-0.2,0.1-0.4,0.2-0.8,0.2c-0.3,0.1-0.8,0.1-1.4,0.1c-0.6,0-1.1,0-1.5-0.1s-0.7-0.2-1-0.3
			s-0.6-0.3-0.8-0.5s-0.5-0.5-0.7-0.7c0.1,0.1-0.1-0.1-0.4-0.5c-0.4-0.4-0.8-1-1.4-1.7c-0.6-0.7-1.2-1.5-1.9-2.4s-1.4-1.7-2.1-2.6
			s-1.3-1.6-1.9-2.4c-0.6-0.7-1-1.3-1.3-1.6l-0.6,0.6v8.4c0,0.8-0.1,1.4-0.2,1.8c-0.1,0.5-0.3,0.9-0.6,1.1s-0.6,0.5-1,0.6
			s-0.9,0.2-1.6,0.2c-0.8,0-1.4-0.2-1.7-0.6c-0.3-0.4-0.4-1-0.4-1.9v-35c0-0.9,0.1-1.5,0.4-1.9c0.3-0.4,0.8-0.6,1.7-0.6
			c1.2,0,2,0.3,2.6,1C195.6,16.8,195.8,17.9,195.8,19.5z"/>
	</g>
	<g>
		<path class="st1" d="M176.9,68.1V85c0,0.4,0,0.7-0.1,1c-0.1,0.2-0.2,0.4-0.3,0.6s-0.3,0.2-0.5,0.3c-0.2,0-0.5,0.1-0.8,0.1
			c-0.4,0-0.7-0.1-0.9-0.3c-0.2-0.2-0.2-0.5-0.2-1V67.1c0-0.5,0.1-0.8,0.2-1c0.2-0.2,0.4-0.3,0.9-0.3c0.6,0,1.1,0.2,1.3,0.5
			C176.8,66.7,176.9,67.3,176.9,68.1z"/>
		<path class="st1" d="M181.8,70.7c-0.3-0.3-0.5-0.7-0.5-1.2c0-0.2,0-0.4,0.1-0.7c0.1-0.2,0.2-0.4,0.4-0.5s0.3-0.3,0.5-0.4
			s0.4-0.1,0.7-0.1c0.2,0,0.4,0,0.7,0.1s0.4,0.2,0.5,0.4c0.2,0.2,0.3,0.3,0.4,0.5c0.1,0.2,0.1,0.4,0.1,0.7c0,0.2,0,0.5-0.1,0.7
			s-0.2,0.4-0.4,0.5c-0.2,0.2-0.3,0.3-0.5,0.4s-0.4,0.1-0.7,0.1C182.5,71.2,182.1,71,181.8,70.7z M184.5,74.8v10.1
			c0,0.4,0,0.7-0.1,1c-0.1,0.2-0.2,0.4-0.3,0.6s-0.3,0.2-0.5,0.3c-0.2,0-0.5,0.1-0.8,0.1c-0.4,0-0.7-0.1-0.9-0.3
			c-0.2-0.2-0.2-0.5-0.2-1V74.2c0-0.4,0.1-0.8,0.2-1c0.2-0.2,0.4-0.3,0.9-0.3c0.6,0,1,0.2,1.3,0.5C184.3,73.7,184.5,74.2,184.5,74.8
			z"/>
		<path class="st1" d="M192.7,71v2h3.1c0.3,0,0.6,0.1,0.7,0.2c0.2,0.1,0.2,0.3,0.2,0.4c0,0.2-0.1,0.4-0.3,0.5s-0.4,0.2-0.7,0.2h-3.1
			v8.8c0,0.4,0,0.8,0.1,1.1s0.2,0.6,0.4,0.8c0.1,0.2,0.3,0.4,0.5,0.5s0.4,0.1,0.6,0.1c0.4,0,0.7-0.1,0.9-0.2s0.5-0.3,0.6-0.5
			c0.2-0.2,0.3-0.4,0.4-0.6s0.2-0.4,0.4-0.6c0.1-0.2,0.2-0.3,0.4-0.5c0.1-0.1,0.3-0.2,0.5-0.2s0.4,0.1,0.5,0.2s0.2,0.3,0.2,0.5
			c0,0.1,0,0.3-0.1,0.5s-0.2,0.4-0.3,0.5c-0.5,0.7-1,1.2-1.7,1.6s-1.4,0.5-2.2,0.5s-1.5-0.1-2-0.3c-0.5-0.2-1-0.5-1.3-0.9
			s-0.6-0.8-0.7-1.4c-0.1-0.5-0.2-1.1-0.2-1.8v-8.2h-1.5c-0.3,0-0.6,0-0.7-0.1s-0.2-0.2-0.2-0.4c0-0.2,0.1-0.3,0.3-0.5
			c0.2-0.1,0.5-0.3,0.8-0.4c0.3-0.2,0.7-0.4,1.1-0.8c0.4-0.3,0.8-0.8,1.1-1.4c0.1-0.2,0.2-0.4,0.3-0.5s0.2-0.3,0.2-0.4
			s0.2-0.2,0.3-0.2s0.2-0.1,0.3-0.1c0.3,0,0.5,0.1,0.6,0.3C192.7,70,192.7,70.4,192.7,71z"/>
		<path class="st1" d="M210.6,83.3c0.1-0.1,0.2-0.2,0.3-0.2c0.1-0.1,0.2-0.1,0.4-0.1s0.3,0.1,0.4,0.2c0.1,0.1,0.2,0.2,0.2,0.4
			c0,0.3-0.1,0.7-0.4,0.9c-1.2,1.5-2.9,2.3-5.1,2.3c-1.1,0-2-0.2-2.8-0.5s-1.5-0.7-2-1.3c-0.5-0.6-1-1.3-1.2-2.1
			c-0.3-0.8-0.4-1.7-0.4-2.8c0-2.4,0.6-4.2,1.7-5.4c1.1-1.2,2.7-1.8,4.8-1.8c0.8,0,1.6,0.1,2.3,0.4c0.7,0.2,1.3,0.6,1.7,1.1
			c0.5,0.5,0.9,1.1,1.1,1.7c0.3,0.7,0.4,1.5,0.4,2.4s-0.5,1.3-1.6,1.3H203c0,0.1,0,0.2,0,0.3s0,0.2,0,0.3c0,0.8,0.1,1.5,0.2,2.1
			c0.2,0.6,0.4,1.2,0.7,1.6s0.7,0.8,1.2,1s1,0.4,1.7,0.4c0.5,0,1-0.1,1.4-0.2s0.7-0.3,1-0.5s0.5-0.4,0.7-0.6s0.4-0.4,0.5-0.6
			L210.6,83.3z M206.3,74.1c-0.9,0-1.6,0.4-2.2,1.1c-0.6,0.8-0.9,1.9-1,3.5h5.2c0.3,0,0.6-0.1,0.7-0.2c0.1-0.1,0.2-0.3,0.2-0.6
			c0-0.6-0.1-1.2-0.2-1.6c-0.2-0.5-0.4-0.9-0.6-1.2c-0.3-0.3-0.6-0.6-0.9-0.7C207,74.1,206.7,74.1,206.3,74.1z"/>
	</g>
	<path id="XMLID_19_" class="st2" d="M47.4,18.4c0.5,0.3,1,0.6,1.4,1c1.7,1.3,2.7,3.1,3.1,5.2c0.3,1.2,0.2,2.5,0.1,3.7
		c-0.1,1.2-0.3,2.5-0.4,3.7c-0.1,0.8,0,1.6,0.2,2.3c0.1,0.4,0.4,0.8,0.7,1.1c0.7,0.6,1.5,0.7,2.4,0.2c0.7-0.4,1.3-1,1.7-1.7
		c0-0.1,0.1-0.1,0.2-0.2c0,0.1,0,0.1-0.1,0.2c-0.3,0.8-0.5,1.7-0.5,2.6c0.1,0.8,0.3,1.5,0.5,2.3c0.4,1.1,0.8,2.3,1.1,3.4
		c0.4,1.5,0.7,3.1,0.7,4.6c-0.1,3.1-1.5,5.3-4.2,6.8c-1.2,0.6-2.5,1.1-3.8,1.3c-1.6,0.3-3.1,0.1-4.6-0.5c-2.7-1.2-4.7-3.1-5.8-5.9
		c-0.9-2.5-0.8-5,0-7.5c0.6-1.8,1.5-3.5,2.6-5.1c1.2-1.8,2.5-3.6,3.8-5.4c1-1.4,1.8-2.8,2.4-4.4c0.4-1,0.6-2,0.5-3
		c-0.1-1.4-0.6-2.6-1.4-3.6C47.9,19.1,47.6,18.8,47.4,18.4L47.4,18.4z"/>
</g>
</svg>
